<mxfile host="65bd71144e">
    <diagram id="XX_EF1Yi7O3g4jt1hvjm" name="Страница 1">
        <mxGraphModel dx="1125" dy="894" grid="0" gridSize="10" guides="1" tooltips="1" connect="1" arrows="1" fold="1" page="0" pageScale="1" pageWidth="827" pageHeight="1169" math="0" shadow="0">
            <root>
                <mxCell id="0"/>
                <mxCell id="1" parent="0"/>
                <mxCell id="4" value="" style="edgeStyle=none;html=1;" edge="1" parent="1" source="2" target="3">
                    <mxGeometry relative="1" as="geometry"/>
                </mxCell>
                <mxCell id="2" value="НАЧАЛО" style="ellipse;whiteSpace=wrap;html=1;" vertex="1" parent="1">
                    <mxGeometry x="410" y="42" width="120" height="80" as="geometry"/>
                </mxCell>
                <mxCell id="6" value="" style="edgeStyle=none;html=1;" edge="1" parent="1" source="3" target="5">
                    <mxGeometry relative="1" as="geometry"/>
                </mxCell>
                <mxCell id="3" value="array&lt;br&gt;len = size(array)&lt;br&gt;index = 0&lt;br&gt;number = 0&lt;br&gt;i=0" style="whiteSpace=wrap;html=1;" vertex="1" parent="1">
                    <mxGeometry x="394" y="143" width="156" height="88" as="geometry"/>
                </mxCell>
                <mxCell id="8" value="trye" style="edgeStyle=none;html=1;" edge="1" parent="1" source="5" target="9">
                    <mxGeometry relative="1" as="geometry">
                        <mxPoint x="470" y="422" as="targetPoint"/>
                    </mxGeometry>
                </mxCell>
                <mxCell id="21" value="false" style="edgeStyle=none;html=1;" edge="1" parent="1" source="5" target="24">
                    <mxGeometry relative="1" as="geometry">
                        <mxPoint x="628" y="307" as="targetPoint"/>
                    </mxGeometry>
                </mxCell>
                <mxCell id="5" value="index &amp;lt; len" style="rhombus;whiteSpace=wrap;html=1;" vertex="1" parent="1">
                    <mxGeometry x="390" y="252" width="160" height="110" as="geometry"/>
                </mxCell>
                <mxCell id="13" value="trye" style="edgeStyle=none;html=1;" edge="1" parent="1" source="9" target="12">
                    <mxGeometry relative="1" as="geometry"/>
                </mxCell>
                <mxCell id="15" value="false" style="edgeStyle=none;html=1;" edge="1" parent="1" source="9">
                    <mxGeometry relative="1" as="geometry">
                        <mxPoint x="251" y="566" as="targetPoint"/>
                    </mxGeometry>
                </mxCell>
                <mxCell id="9" value="size(array[index]) &amp;lt;= 3&amp;nbsp;" style="rhombus;whiteSpace=wrap;html=1;" vertex="1" parent="1">
                    <mxGeometry x="340" y="496" width="250" height="140" as="geometry"/>
                </mxCell>
                <mxCell id="14" value="" style="edgeStyle=none;html=1;" edge="1" parent="1" source="12">
                    <mxGeometry x="-0.7306" relative="1" as="geometry">
                        <mxPoint x="253" y="432" as="targetPoint"/>
                        <Array as="points">
                            <mxPoint x="253" y="718"/>
                        </Array>
                        <mxPoint as="offset"/>
                    </mxGeometry>
                </mxCell>
                <mxCell id="12" value="number ++" style="whiteSpace=wrap;html=1;" vertex="1" parent="1">
                    <mxGeometry x="405" y="682" width="120" height="60" as="geometry"/>
                </mxCell>
                <mxCell id="19" style="edgeStyle=none;html=1;entryX=0;entryY=0.5;entryDx=0;entryDy=0;" edge="1" parent="1" source="18" target="5">
                    <mxGeometry relative="1" as="geometry">
                        <Array as="points">
                            <mxPoint x="254" y="307"/>
                        </Array>
                    </mxGeometry>
                </mxCell>
                <mxCell id="18" value="index ++" style="rounded=0;whiteSpace=wrap;html=1;" vertex="1" parent="1">
                    <mxGeometry x="194" y="374" width="120" height="60" as="geometry"/>
                </mxCell>
                <mxCell id="23" value="true" style="edgeStyle=none;html=1;entryX=0.5;entryY=0;entryDx=0;entryDy=0;" edge="1" parent="1" source="20" target="26">
                    <mxGeometry relative="1" as="geometry">
                        <mxPoint x="924.5" y="478.5" as="targetPoint"/>
                    </mxGeometry>
                </mxCell>
                <mxCell id="31" style="edgeStyle=none;html=1;" edge="1" parent="1" source="20" target="32">
                    <mxGeometry relative="1" as="geometry">
                        <mxPoint x="1140.8823529411766" y="307.5" as="targetPoint"/>
                    </mxGeometry>
                </mxCell>
                <mxCell id="20" value="index&amp;lt; len" style="rhombus;whiteSpace=wrap;html=1;" vertex="1" parent="1">
                    <mxGeometry x="861" y="247" width="127" height="121" as="geometry"/>
                </mxCell>
                <mxCell id="25" value="" style="edgeStyle=none;html=1;" edge="1" parent="1" source="24" target="20">
                    <mxGeometry relative="1" as="geometry"/>
                </mxCell>
                <mxCell id="24" value="arrayResult" style="rounded=0;whiteSpace=wrap;html=1;" vertex="1" parent="1">
                    <mxGeometry x="659" y="277" width="120" height="60" as="geometry"/>
                </mxCell>
                <mxCell id="28" value="true" style="edgeStyle=none;html=1;" edge="1" parent="1" source="26" target="27">
                    <mxGeometry relative="1" as="geometry"/>
                </mxCell>
                <mxCell id="30" value="false" style="edgeStyle=none;html=1;" edge="1" parent="1" source="26">
                    <mxGeometry relative="1" as="geometry">
                        <mxPoint x="725.5882352941178" y="507" as="targetPoint"/>
                    </mxGeometry>
                </mxCell>
                <mxCell id="26" value="&lt;span&gt;size(array[index]) &amp;lt;= 3&amp;nbsp;&lt;/span&gt;" style="rhombus;whiteSpace=wrap;html=1;" vertex="1" parent="1">
                    <mxGeometry x="844.25" y="437" width="160.5" height="140" as="geometry"/>
                </mxCell>
                <mxCell id="29" style="edgeStyle=none;html=1;" edge="1" parent="1" source="27">
                    <mxGeometry relative="1" as="geometry">
                        <mxPoint x="823" y="305" as="targetPoint"/>
                        <Array as="points">
                            <mxPoint x="726" y="691"/>
                            <mxPoint x="726" y="385"/>
                            <mxPoint x="823" y="385"/>
                        </Array>
                    </mxGeometry>
                </mxCell>
                <mxCell id="27" value="arrayResult[i++] = array[index]" style="whiteSpace=wrap;html=1;" vertex="1" parent="1">
                    <mxGeometry x="832.25" y="661" width="184.5" height="60" as="geometry"/>
                </mxCell>
                <mxCell id="34" value="" style="edgeStyle=none;html=1;" edge="1" parent="1" source="32" target="33">
                    <mxGeometry relative="1" as="geometry"/>
                </mxCell>
                <mxCell id="32" value="arrayResult" style="shape=document;whiteSpace=wrap;html=1;boundedLbl=1;" vertex="1" parent="1">
                    <mxGeometry x="1080.8823529411766" y="267.5" width="120" height="80" as="geometry"/>
                </mxCell>
                <mxCell id="33" value="КОНЕЦ" style="ellipse;whiteSpace=wrap;html=1;" vertex="1" parent="1">
                    <mxGeometry x="1080.8823529411766" y="437.5" width="120" height="60" as="geometry"/>
                </mxCell>
            </root>
        </mxGraphModel>
    </diagram>
</mxfile>